<?xml version="1.0" encoding="UTF-8" standalone="no"?>
<svg id="svg2" xmlns:rdf="http://www.w3.org/1999/02/22-rdf-syntax-ns#" xmlns="http://www.w3.org/2000/svg" height="428.66" width="600" version="1.1" xmlns:cc="http://creativecommons.org/ns#" xmlns:dc="http://purl.org/dc/elements/1.1/">
 <g id="layer1" transform="translate(-71.06 -326.04)">
  <rect id="rect2991" rx="29.902" ry="32.258" height="428.66" width="600" y="326.04" x="71.06" fill="#ef3d33"/>
  <g fill="#fff">
   <g id="text3761">
    <path id="path3955" d="m307.72 419.79v-74h-13.7v30.1h-26.5v-30.1h-13.7v74h13.7v-31.1h26.5v31.1h13.7"/>
    <path id="path3957" d="m375.69 391.29c0-16.1-12.5-28.9-28.7-28.9-16.8 0-29.2 13.2-29.2 29.8 0 16.5 12.7 29.4 29.3 29.4 11.8 0 23.2-8 26.8-19.3h-14c-2.7 4.9-7.4 7.1-12.8 7.1-5.5 0-10.5-2.8-13.5-7.4-0.8-1.2-1.5-2.5-1.8-4h43.1c0.5-2.2 0.8-4.5 0.8-6.7m-13.6-4h-30.7c1.9-7.9 7.6-12.7 15.7-12.7s13.7 4.7 15 12.7"/>
    <path id="path3959" d="m397.45 419.79v-74h-13.3v74h13.3"/>
    <path id="path3961" d="m421.48 419.79v-74h-13.3v74h13.3"/>
    <path id="path3963" d="m488.3 391.89c0-16.3-13-29.5-29.4-29.5s-29.6 13.4-29.6 29.7c0 16.2 13.4 29.5 29.6 29.5 16.8 0 29.4-12.9 29.4-29.7m-13.3 0.3c0 9.1-6.7 17.2-16.1 17.2-9.6 0-16.3-8-16.3-17.3 0-9 6.9-17.5 16.3-17.5s16.1 8.7 16.1 17.6"/>
   </g>
   <g id="text3769">
    <path id="path3966" d="m284.55 463.79v-14.696c0-6.292-3.476-10.34-9.944-10.34-3.564 0-6.16 1.1-8.052 4.092-1.276-2.728-4.708-4.092-7.568-4.092-3.212 0-4.972 0.924-6.996 3.3h-0.088v-2.64h-4.224v24.376h4.576v-13.596c0-4.092 1.32-7.26 6.028-7.26 1.892 0 3.476 0.66 4.532 2.288 1.012 1.628 1.012 3.168 1.012 5.016v13.552h4.576v-13.596c0-4.004 1.056-7.26 5.808-7.26 4.488 0 5.764 3.476 5.764 7.304v13.552h4.576"/>
    <path id="path3968" d="m310.96 439.41h-4.928l-7.348 18.92-7.172-18.92h-4.928l9.724 23.892-3.564 8.624h4.752l13.464-32.516"/>
    <path id="path3970" d="m348.94 463.79v-14.432c0-2.156-0.35201-4.4-1.54-6.248-1.892-2.992-5.148-4.356-8.624-4.356-2.816 0-5.368 0.924-7.128 3.256h-0.088v-2.596h-4.268v24.376h4.576v-13.288c0-4.092 1.936-7.568 6.424-7.568 4.84 0 6.072 3.476 6.072 7.612v13.244h4.576"/>
    <path id="path3972" d="m379.35 463.79v-24.376h-4.576v3.432h-0.088c-1.804-2.772-5.016-4.092-8.272-4.092-7.392 0-12.936 5.544-12.936 12.936 0 7.348 5.632 12.716 12.936 12.716 3.344 0 6.556-1.452 8.272-4.4h0.088v3.784h4.576m-4.488-12.144c0 4.708-3.74 8.58-8.492 8.58-4.664 0-8.316-4.004-8.316-8.58 0-4.752 3.52-8.712 8.36-8.712 4.972 0 8.448 3.828 8.448 8.712"/>
    <path id="path3974" d="m422.13 463.79v-14.696c0-6.292-3.476-10.34-9.944-10.34-3.564 0-6.16 1.1-8.052 4.092-1.276-2.728-4.708-4.092-7.568-4.092-3.212 0-4.972 0.924-6.996 3.3h-0.088v-2.64h-4.224v24.376h4.576v-13.596c0-4.092 1.32-7.26 6.028-7.26 1.892 0 3.476 0.66 4.532 2.288 1.012 1.628 1.012 3.168 1.012 5.016v13.552h4.576v-13.596c0-4.004 1.056-7.26 5.808-7.26 4.488 0 5.764 3.476 5.764 7.304v13.552h4.576"/>
    <path id="path3976" d="m451.64 451.29c0-6.864-5.5-12.54-12.408-12.54-7.128 0-12.496 5.764-12.496 12.804 0 6.82 5.456 12.848 12.408 12.848 5.324 0 9.856-3.3 11.704-8.272h-4.576c-1.32 2.552-4.092 4.092-6.952 4.092-4.004 0-7.084-2.86-8.008-6.644h20.196c0.088-0.748 0.132-1.54 0.132-2.288m-4.576-1.232h-15.752c0.264-4.004 3.916-7.128 7.876-7.128s7.612 3.124 7.876 7.128"/>
    <path id="path3978" d="m473.8 436.6v-5.368h-4.576v5.368h4.576m0 27.192v-24.376h-4.576v24.376h4.576"/>
    <path id="path3980" d="m494.45 456.62c0-4.708-3.344-6.688-7.348-7.92-1.672-0.528-3.784-1.012-3.784-3.168 0-1.628 1.32-2.596 2.86-2.596 1.848 0 2.904 1.188 3.124 2.948h4.576c-0.088-4.224-3.3-7.128-7.48-7.128-4.004 0-7.656 2.86-7.656 7.04 0 8.624 11.132 5.984 11.132 11.088 0 2.112-1.496 3.344-3.52 3.344-2.728 0-3.96-1.936-4.136-4.444h-4.576c0 3.828 1.892 6.776 5.5 8.052 1.012 0.352 2.068 0.572 3.124 0.572 4.664 0 8.184-2.992 8.184-7.788"/>
   </g>
   <rect id="rect3773" height="232.86" width="600" y="487.51" x="71.06"/>
  </g>
  <g stroke="#000">
   <path id="path4293" d="m174.1 523.7c-8.9711 2.3324-16.756 7.2077-24.07 12.733-7.5586 6.0168-14.163 13.258-19.124 21.575-1.1396 1.9105-2.1238 3.9096-3.1857 5.8643-5.1073 10.574-8.3683 21.847-10.48 33.361-1.5967 8.1591-1.2485 16.359-0.32693 24.554 0.77399 6.5015 2.3229 12.699 5.2224 18.567 3.2803 5.8158 8.2355 10.341 13.751 13.983 4.8993 2.862 10.36 4.4936 15.939 5.3411 0.86373 0.16409 1.7251 0.34131 2.5912 0.49228 1.1263 0.19632 4.1992 0.68057 5.3334 0.75408 0.90761 0.0588 3.638 0.026 2.7285 0.017-18.67-0.18367-23.824 0.4599-15.266-0.44175 5.3012-0.60715 10.515-1.7118 15.555-3.4572 5.8568-2.1849 10.914-5.8287 15.777-9.6668 5.3152-4.0781 9.0067-9.3975 12.077-15.252 2.2988-4.7238 3.7689-9.7971 3.8697-15.058 0.0774-4.335-1.2578-6.511-3.844-9.705-2.3849-2.567-5.2355-4.3856-8.2375-6.1108-3.2969-1.5172-6.8913-1.7977-10.461-1.9962 34.672 0.96696 22.307-0.78841 15.182 0.52403-1.9463 0.35852-3.8276 0.92092-5.7131 1.5096-3.2858 0.88371-6.4182 2.2024-9.5843 3.4242-2.7845 1.1521-5.7698 1.7627-8.1672 3.6416l-1.189 1.1582-21.042-1.615c0.39358-0.43509 0.78717-0.87018 1.1808-1.3053 0.57602-0.59077 1.7598-1.8784 2.4777-2.3234 1.739-1.0778 4.0444-1.0045 5.7693-2.1515 3.2653-1.046 6.3165-2.6759 9.6642-3.4834 11.86-3.8128 16.364-3.4681 32.27-2.5136 3.6962 0.37572 7.357 1.0112 10.603 2.9424 3.1092 1.8731 5.9567 4.1408 8.3281 6.9069 2.4699 3.3238 3.9238 6.9239 3.7559 11.151-0.17543 5.5875-1.6612 10.961-4.0818 16.001-0.44563 0.86464-2.6385 5.1577-3.1303 5.9553-2.3873 3.8721-5.7035 7.1156-9.0423 10.152-4.8662 4.001-9.8594 7.8487-15.7 10.354-5.027 1.974-10.246 3.2713-15.612 3.9347-12.215 1.7568-24.749 1.4917-36.825-0.9304-5.612-1.1597-11.087-3.0303-15.878-6.2501-5.584-4.0664-10.652-8.8602-13.897-15.053-2.8986-6.2644-4.3475-12.409-5.1318-19.268-0.90785-8.4049-1.0752-16.817 0.59283-25.161 2.2496-11.717 5.707-23.141 10.814-33.954 1.0188-2.016 1.9538-4.0766 3.0566-6.048 4.8081-8.595 11.608-16.008 19.148-22.268 7.1168-5.658 14.622-10.812 23.385-13.575 0 0 20.917 2.6907 20.917 2.6907z"/>
   <path id="path4295" d="m256.86 599.08c-2.9554 4.7749-5.4832 9.7665-7.3582 15.059-1.7653 5.3434-2.1078 10.836-1.427 16.381 0.89635 5.6915 4.124 10.323 7.717 14.649 3.4173 3.5427 7.6201 5.3859 12.382 6.1985 8.8732-0.2813-3.1954 0.12638-17.325-0.2117-0.49022-0.0117 0.96994-0.1538 1.4453-0.274 1.364-0.34487 2.3447-0.88677 3.4194-1.763 2.2185-2.2354 2.7441-5.297 3.1335-8.2937 0.35456-3.974 0.29812-7.9705 0.31076-11.956-0.39648-3.8826-0.9117-7.7499-1.2283-11.642-0.53043-3.4754-1.8629-6.7306-3.6745-9.7238-1.964-2.6129-3.6942-5.3998-5.6693-7.9947-0.22396-0.35903-0.42499-0.73343-0.6719-1.0771-0.16587-0.23086-0.32373-0.48673-0.56251-0.64099-0.16243-0.10493-0.75533 0.15096-0.56209 0.14364 21.933-0.83132 18.831-7.6129 21.922-0.0794 2.1357 2.2282 4.5308 4.2006 6.6549 6.4624 3.05 4.0143 6.6604 7.5257 10.256 11.041 3.6259 4.1029 6.4024 8.8478 10.023 12.947 2.4793 3.2044 5.7732 5.6173 8.4785 8.6067 2.0861 1.9599 3.7887 4.2727 5.9676 6.1356 0.27423 0.31123 0.54845 0.62245 0.82267 0.93368l-21.143 1.5926c-0.26644-0.26705-0.53289-0.53409-0.79933-0.80114-1.997-2.0573-3.8809-4.2142-5.8784-6.2704-2.8152-2.8723-5.9133-5.4815-8.3344-8.7232-3.4264-4.183-6.233-8.8532-9.9969-12.763-3.5858-3.5578-7.1046-7.1647-10.337-11.05-2.4299-2.2745-5.2125-4.3642-6.9439-7.242-3.319-7.2495-0.83348-1.0963 20.577-3.1726 0.0509-0.005 0.73011 1.231 1.017 1.6712 0.21481 0.32957 0.43377 0.65643 0.65065 0.98465 1.8129 2.7612 3.8065 5.3918 5.5624 8.1924 1.8338 3.3157 3.2654 6.8782 3.7269 10.665 0.28378 3.9467 0.83266 7.8608 1.1732 11.801 0.0186 4.0691 0.0241 8.1425-0.25069 12.205-0.35994 3.3898-0.97651 6.91-3.1127 9.6748-6.2408 7.7178-21.768 4.3908-29.497 3.4614-4.8628-1.308-9.0502-3.7902-12.39-7.6269-3.6584-4.7159-6.8742-9.7919-7.7846-15.814-0.6723-5.8571-0.27136-11.671 1.5203-17.325 1.824-5.3431 4.3129-10.383 6.9978-15.345l21.188 0.98308z"/>
   <path id="path4297" d="m330.58 613.96c1.0745 4.7057 2.2978 9.3834 3.9203 13.932 4.5535 12.829 0.21303 7.1857-20.013 6.222-1.3608-2.6786-1.9896-5.6624-2.9528-8.5-1.5284-4.262-1.7538-8.7743-2.3695-13.21-0.98835-4.7785-0.92069-9.5827 0.11767-14.333 2.1296-6.8106 6.7548-11.957 12.01-16.553 3.745-3.028 8.0338-5.2351 12.182-7.6359 0 0 20.705 2.1766 20.705 2.1766-4.1174 2.3693-8.417 4.4408-12.272 7.2435-5.0572 4.2255-9.5871 8.7991-11.638 15.252-1.1303 4.4938-1.0164 9.021-0.13146 13.564 0.58694 4.3118 0.90399 8.6905 2.4388 12.809 0.91576 2.7076 1.586 5.6036 3.2176 7.9884-26.523-0.31766-18.354 7.1304-22.254-4.3302-1.5194-4.6101-2.6632-9.3292-4.1737-13.942 0 0 21.212-0.68274 21.212-0.68274z"/>
   <path id="path4299" d="m380.4 591.46c0.84727 4.6879 1.892 9.3343 2.7852 14.013 0.76859 3.9073 2.3027 7.5858 3.2848 11.433 0.10489 0.5264 0.20458 1.0539 0.31468 1.5792 0.28188 1.345 0.81636 2.6376 0.41649 2.6433-21.627 0.30888-19.497 6.24-21.843-1.6712-1.4802-3.366-2.6755-6.8198-3.5453-10.389-0.69578-3.9853-1.5845-7.9399-2.1153-11.952-0.9074-4.3485-1.3976-8.7526-1.7455-13.176-0.40431-3.6494-0.252-7.229 1.1088-10.657 1.4679-3.7679 3.4623-5.3928 7.2702-6.5461 11.207-1.514 22.804-1.9549 33.99-0.15425 0 0-20.647 2.9978-20.647 2.9978-8.7159-0.85667-4.6391-0.35294 14.82-0.40057 1.317-0.003-2.5301 0.0132-5.199 0.19452-0.69684 0.0473-1.3911 0.12646-2.0867 0.18969-3.2434 0.4897-5.8763 1.2292-7.0181 4.6286-1.5996 2.954-1.4484 6.3236-1.2181 9.5923 0.30194 4.3871 0.86549 8.7368 1.7753 13.043 0.56322 3.9288 1.372 7.8171 2.0832 11.72 0.92059 3.5041 2.2364 6.8813 3.7309 10.18 3.1973 7.5669 0.54741 0.40498-20.733 1.371-0.20909 0.009 0.0824 0.82521 0.1116 0.61795 0.0855-0.60591-0.17327-1.2118-0.28369-1.8137-0.0902-0.49154-0.19734-0.97982-0.29601-1.4697-0.98631-3.8724-2.4281-7.619-3.1145-11.57-0.87978-4.7273-1.9317-9.4249-3.042-14.102l21.197-0.30079z"/>
   <path id="path4301" d="m425.46 581.53c2.6405-3.8584 4.5468-8.2058 4.7819-12.905-0.47499-3.3654-2.2413-3.4703-5.1152-3.1118 35.108 0.0746 22.963-1.9806 15.971 1.2922-2.6226 1.2274-4.9054 2.9292-7.2142 4.6505-4.2581 3.223-6.9247 7.6342-8.8538 12.518-1.6853 5.1206-2.1224 10.466-1.5054 15.795 0.50647 3.0386 0.97451 6.5924 3.3883 8.8268 0.95616 0.88511 3.4813 2.0923 4.546 2.6466 2.8858 1.342 5.8508 1.9706 9.0066 2.1887 1.1528 0.0797 4.6196 0.13678 3.464 0.13615-19.732-0.0106-22.383 0.36781-13.469-0.48561 5.2657-0.6065 10.195-2.587 15.049-4.5998 0 0 20.567 2.4167 20.567 2.4167-4.8732 2.1116-9.8278 4.2675-15.089 5.18-11.218 1.6543-4.2153 0.79538-27.587 0.60867-4.4467-0.0355-8.7676-1.2221-12.698-3.256-6.0874-3.7944-7.118-6.4419-8.0638-13.427-0.62453-5.6571-0.21013-11.323 1.47-16.789 1.9173-5.2505 4.6142-10.09 9.0374-13.661 12.399-9.8322 11.724-7.3569 32.914-7.2865 3.386 0.61046 5.0905 3.0802 5.2362 6.4828-0.32942 4.9421-2.191 9.6334-4.6976 13.879l-21.138-1.0984z"/>
   <path id="path4329" d="m479.28 523.25c3.5666 5.85 7.0788 11.696 10.163 17.817 3.0076 6.8712 5.797 13.837 8.3849 20.876 2.2077 5.2347 3.5527 10.761 5.0659 16.218 1.1825 4.2531 2.1709 8.5507 3.272 12.826 0.87248 3.5004 1.574 7.0595 2.5319 10.538 0.77225 2.5899 1.0976 5.2542 1.8788 7.8366 0.76575 1.9048 1.2716 3.9801 2.1408 5.8444 0.44481 1.4529 1.5879 2.474 2.3911 3.7054l-19.708 1.1915c-0.94525-1.2812-1.8248-2.6186-2.3569-4.1317-0.73267-2.0086-1.5116-4.0061-2.1212-6.0535-0.72773-2.6049-1.017-5.298-1.8016-7.8917-0.87158-3.5038-1.5797-7.0518-2.4427-10.559-1.0457-4.2726-2.07-8.5467-3.1987-12.798-1.3964-5.4184-2.7873-10.846-4.8671-16.055-2.5075-6.9851-5.244-13.897-8.326-20.649-3.0843-6.0913-6.572-11.971-10.591-17.498l19.585-1.2163z"/>
   <path id="path4331" d="m522.86 524.89c2.5052 5.437 5.3732 10.698 8.05 16.05 2.6935 5.1398 4.8159 10.533 6.8506 15.957 1.7888 4.9558 3.3417 9.9635 5.4194 14.812 1.5384 4.0983 3.1034 8.1829 4.2649 12.407 1.0924 3.5359 1.7895 7.1665 2.7318 10.741 0.62155 2.861 1.627 5.5936 2.1267 8.4883 0.60486 2.6361 1.6661 5.1155 2.3167 7.7399 0.97193 2.6062 1.5232 5.3125 1.84 8.0671 0.68845 2.5081 1.5311 4.9912 2.3314 7.4749 0 0-19.674 0.55366-19.674 0.55366-0.67464-2.632-1.7826-5.1271-2.2838-7.7985-0.32242-2.6707-0.93925-5.2649-1.8308-7.8062-0.70055-2.6549-1.7987-5.1848-2.3285-7.8875-0.51242-2.8284-1.4771-5.5288-2.0706-8.3387-0.89538-3.5682-1.5234-7.1988-2.6462-10.709-1.1436-4.1366-2.6935-8.1417-4.1906-12.161-2.0054-4.892-3.4884-9.9474-5.3585-14.89-1.9959-5.3571-4.1274-10.667-6.7622-15.749-2.7349-5.3773-5.4304-10.776-8.377-16.042 0 0 19.591-0.90899 19.591-0.90899z"/>
   <path id="path4333" d="m540.01 559.49c-3.147-0.82256-6.2014-2.1063-9.3818-2.8026-1.7469-0.3825-3.4394-0.45243-5.2156-0.59244-2.7024-0.11544-2.524-0.13059-5.2134-0.15549-0.85802-0.008-3.4322-0.0109-2.5742-0.005 29.691 0.21986 19.062-0.15908 12.016 0.55847-4.7364 0.48504-9.2834 1.8965-13.833 3.2231-5.2883 1.5663-10.219 3.9577-14.904 6.8347-3.7939 2.5464-7.4249 5.3206-11.249 7.8228-2.415 1.3856-4.7307 2.7985-6.7429 4.7301-0.249 0.27989-0.498 0.55978-0.747 0.83967l-19.613-1.3722c0.248-0.31199 0.496-0.62398 0.74399-0.93596 1.9168-2.2881 4.3069-3.8619 6.9359-5.2426 3.9831-2.3289 7.6302-5.1631 11.415-7.7924 4.6958-3.0206 9.5959-5.6434 14.934-7.3569 4.558-1.4082 9.1119-2.8744 13.841-3.5919 11.333-1.1851 22.783-1.1273 34.146-0.38449 5.1178 0.67657 9.9715 2.3273 14.939 3.6884 0 0-19.498 2.5343-19.498 2.5343z"/>
  </g>
 </g>
</svg>
